<svg xmlns="http://www.w3.org/2000/svg" viewBox="0 0 32 32" width="32" height="32">
  <rect width="32" height="32" fill="#ffffff"/>
  <g transform="translate(3,3) scale(0.009375)">
    <path transform="translate(1761,466)" d="m0 0h53l17 2 7 6 2 5 1 9 1 251 2 265 1 254 1 304 2 308v257l-5 9-5 5-7 2h-74l-1256-3-83-1-10-3-6-4-4-5-2-7 1-162 1-267 1-410 1-171 1-126 1-325 1-171 4-10 7-7 9-3 27-1h250zm-1119 38-201 1-1 362-1 298-2 298-1 380v260h71l680 1 360 1h263v-102l-2-290-2-591v-53l-1-83-1-144-1-338z" fill="#4a2e1f"/>
    <path transform="translate(789,943)" d="m0 0 6 3-1 6-13 14-7 8-5 6-8 7-15 15-11 12-9 11-11 13-7 10-30 52-15 24-14 24-15 27-13 26-11 23-13 29-8 20-10 32-6 24-8 42-9 50-4 27-4 35-5 56-2 24-1 21v40l3 36 3 22 7 39 8 36 9 32 15 46 13 33 16 33 10 18 9 17 7 21v6l-1 1-7-1-12-8-12-12-13-18-12-20-10-18-13-27-12-30-9-24-9-28-8-31-7-34-6-35-4-42v-46l3-47 5-53 4-36 6-38 8-40 10-46 8-31 9-29 13-36 13-34 11-27 10-21 12-22 13-21 13-19 26-36 14-17 11-12 17-16 13-12 11-10 10-8 10-9 12-11 13-11z" fill="#4a2e1f"/>
    <path transform="translate(1433,1422)" d="m0 0 9 1 14 6 10 7 11 10 11 9 18 18 11 9 12 11 5 4v2h2l7 8 11 13 14 19 22 33 15 24 10 17 11 18 8 16 13 29 13 35 12 35 6 23 9 36 13 41 11 45 1 4v9l-4 4h-3l-5-8-8-22-6-23-11-28-13-30-12-24-14-24-14-28-13-28-16-32-13-22-10-16-16-28-16-27-15-26-12-21-10-17-16-24-10-13-9-10-7-7-7-8-13-10-8-6z" fill="#4a2e1f"/>
    <path transform="translate(1200,1790)" d="m0 0h10l28 3 36 2 16 4 16 8 12 9 13 13 12 18 14 27 13 31 11 30 6 19 9 35 10 41 10 38 1 12-2 3-6-2-9-10-8-16-8-24-11-42-8-30-11-33-5-13-3-7-4 11-10 40-6 21-1 4-1 16 1 41 3 32-1 7-4 3-6-1-5-9-4-20-1-9v-52l2-14 7-24 9-31 6-18 5-8 2-3-1-5-11-21-10-15-9-10-10-9-15-9-18-6-29-6-37-12-3-2 1-5z" fill="#4a2e1f"/>
    <path transform="translate(947,619)" d="m0 0h17l12 4 14 9 10 10 4 8 3 13 1 9v20l-4 8-5 1-6-3-4-8-7-25-5-5-7-2-10 1-16 8-11 8-12 11-11 14-6 8-9 14-8 16-5 16-5 23-3 25-1 15v31l-1 25-5 23-7 14-13 13-10 5-10 2-1-3 3-5 13-12 10-14 5-13 3-19 1-18-2-28-1-39v-30l2-20 5-20 10-26 9-17 10-14 14-14 15-10 13-6z" fill="#4a2e1f"/>
    <path transform="translate(931,911)" d="m0 0h31l31 3 25 3 25 6 24 8 18 8 18 11 14 12 10 8 13 13 10 14 11 19 5 12 3 11 2 14v11l-3 11-7 8-6 4-6-1-9-6-7-8-5-10-8-20-10-19-8-16-8-13-13-16-9-10-12-9-15-9-20-9-19-7-26-6-17-3-27-2h-23l5-5 9-6z" fill="#4a2e1f"/>
    <path transform="translate(999,1347)" d="m0 0 5 1-2 5-7 21-12 48-6 32-4 53v20l4 34 6 29 6 21 10 23 10 19 5 13-1 9-3 7-4 6-7 3-10-3-10-8-10-12-7-12-7-17-5-20-3-20-1-11v-48l3-34 4-33 5-29 7-28 11-33 9-19 8-12z" fill="#4a2e1f"/>
    <path transform="translate(1156,711)" d="m0 0h11l10 3 8 5 4 5 5 12 2 10v15l-4 17-8 16-9 15-4 4-3-1 1-8 8-16 5-12 3-12v-12l-4-12-5-5-2-1h-7l-12 5-11 9-5 5h-2l-2 4-14 15-9 11-10 13-7 11-13 22-10 13-10 11-8 10-12 12-10 5-10-1-7-4 1-8 12-17 16-21 11-16 6-10 6-12 10-15 9-12 4-5h2l2-4 15-16 9-9 15-11 13-6z" fill="#4a2e1f"/>
    <path transform="translate(1288,1248)" d="m0 0 4 2v7l-9 14-12 15-7 8-8 6-16 8-6 1h-16l-16-3-26-7-21-5-21-2h-25l-14 3-17 7-21 9-26 8-18 3-11-1-7-6 1-5 5-4 54-18 25-11 20-6 7-1h24l21 3 24 6 25 7 20 3h12l13-4 10-6 7-6h2v-2l5-5 9-10 6-7z" fill="#4a2e1f"/>
    <path transform="translate(1155,1608)" d="m0 0h5v5l-8 8-19 11-26 14-20 12-11 10-5 10-1 3v10l8 10 4 8v10l-3 9-9 11-5 6-3 9v9l3 6 7 5 11 2 44 1 8 5 1 1v8l-5 4-11 3-6 2-14 1-15-2-21-7-14-7-7-7-4-9v-13l3-12 5-10 14-13 3-5v-7l-6-13-1-3v-10l4-12 7-11 4-5 15-11 22-12 28-13 15-9z" fill="#4a2e1f"/>
    <path transform="translate(1318,1299)" d="m0 0 12 2 19 8 11 6 10 9 8 9 6 9 8 19 4 16 3 21v20l-4 13-4 6-1 1-10-1-7-6-4-13-8-37-8-26-8-16-9-11-7-7-8-7-6-7 1-7z" fill="#4a2e1f"/>
    <path transform="translate(1209,1052)" d="m0 0 7 1 12 5 27 7 24 8 9 5 10 9 6 8 4 8 1 4v13l-4 11v7l7 9 13 9 7 8 5 11 3 9 1 5v11l-4 10-7 8-7 4-11-1-5-4v-7l10-15-3-15-4-8-17-17-5-12v-8l4-12 5-8-1-8-4-9-7-8-10-6-28-10-24-8-10-5-4-4z" fill="#4a2e1f"/>
    <path transform="translate(1260,1459)" d="m0 0h7l2 2-1 6-11 9-19 13-13 10-11 9-8 9-7 11-12 19-4 5h-2v2h-2v2l-6 4-6 1-4-3 1-11 6-15 8-13 7-10 11-12 14-11 19-12 20-11z" fill="#4a2e1f"/>
    <path transform="translate(1273,1318)" d="m0 0h5l3 4v12l-1 14v11l2 13 4 12 10 19 11 17 13 18 5 8-1 3-7-1-10-7-9-9-13-19-9-17-6-17-3-14v-26l2-13 3-7z" fill="#4a2e1f"/>
  </g>
</svg>