<svg xmlns="http://www.w3.org/2000/svg" viewBox="0 0 1200 80" preserveAspectRatio="xMidYMid slice">
  <g fill="none" stroke="#FAF7F2" stroke-width="0.8" stroke-linecap="round" stroke-linejoin="round">

    <!-- Edge-to-edge contour lines -->
    <g opacity="0.22">
      <path d="M0,7 C80,3 180,11 320,5 C460,-1 580,9 720,5 C860,1 1000,8 1200,7"/>
      <path d="M0,20 C100,16 220,24 380,18 C540,12 670,22 820,17 C970,12 1100,20 1200,20"/>
      <path d="M0,34 C70,30 190,38 360,32 C530,26 680,36 850,30 C1010,24 1120,33 1200,34"/>
      <path d="M0,48 C110,44 240,52 420,46 C600,40 750,50 920,45 C1060,40 1140,47 1200,48"/>
      <path d="M0,61 C90,57 210,65 400,59 C590,53 740,63 910,58 C1060,53 1150,61 1200,61"/>
      <path d="M0,74 C120,71 260,77 450,73 C640,68 800,76 990,72 C1100,69 1160,74 1200,74"/>
    </g>

    <!-- Closed contour islands — suggest terrain features -->
    <g opacity="0.16">
      <!-- Hill left -->
      <path d="M90,44 C112,32 158,29 182,38 C206,47 200,63 174,68 C148,73 108,65 92,55 Z"/>
      <path d="M106,46 C122,37 154,35 172,42 C190,49 185,61 165,65 C145,68 114,62 105,54 Z"/>

      <!-- Hill centre-left -->
      <path d="M390,18 C418,8 472,6 502,16 C532,26 524,46 494,52 C464,58 418,50 396,40 C378,32 376,24 390,18 Z"/>
      <path d="M404,22 C426,14 466,12 490,20 C514,28 508,44 482,49 C456,54 420,48 404,40 Z"/>
      <path d="M418,27 C434,21 462,19 480,25 C498,31 493,43 472,47 C451,51 426,46 416,38 Z"/>

      <!-- Hill centre-right -->
      <path d="M720,52 C748,40 800,38 832,48 C860,58 852,76 820,80 C788,84 748,76 728,66 C712,58 710,60 720,52 Z"/>
      <path d="M734,55 C756,46 798,44 824,52 C846,60 840,74 814,78 C788,81 754,75 737,66 Z"/>

      <!-- Hill right -->
      <path d="M1020,22 C1044,12 1090,10 1116,20 C1138,30 1132,50 1104,56 C1076,62 1036,54 1020,44 Z"/>
      <path d="M1034,26 C1052,18 1086,16 1106,24 C1124,32 1119,48 1096,53 C1073,57 1042,51 1032,42 Z"/>
      <path d="M1048,30 C1062,24 1086,22 1100,28 C1114,34 1110,46 1092,50 C1074,53 1053,48 1046,40 Z"/>
    </g>

  </g>
</svg>
